<?xml version="1.0" encoding="UTF-8" standalone="no"?><svg xmlns="http://www.w3.org/2000/svg" xmlns:xlink="http://www.w3.org/1999/xlink" height="788" version="1.1" width="1020"><defs/><g><g transform="translate(2,10) scale(1,1)"><path d="M 8 0 L 1008 0 L 1008 768 L 8 768 L 8 0" fill="none" stroke="#000000" stroke-miterlimit="10"/></g><g transform="translate(2,10) scale(1,1)"><path d="M 8 0 L 8 22 L 232.3427734375 22 L 243.3427734375 11 L 243.3427734375 0 L 8 0" fill="#ffffff" stroke="none"/></g><g transform="translate(2,10) scale(1,1)"><path d="M 8 0 L 8 22 L 232.3427734375 22 L 243.3427734375 11 L 243.3427734375 0 L 8 0 L 8 0" fill="none" stroke="#000000" stroke-miterlimit="10"/></g><g transform="translate(2,10) scale(1,1)"><g><path fill="none" stroke="none"/><text fill="#000000" font-family="Arial" font-size="13px" font-style="normal" font-weight="normal" stroke="none" text-decoration="none" x="32.72998046875" y="17.5">SequenceDiagram TransaksiBaru</text></g></g><g transform="translate(2,10) scale(1,1)"><g><path fill="none" stroke="none"/><text fill="#000000" font-family="Arial" font-size="13px" font-style="normal" font-weight="bold" stroke="none" text-decoration="none" x="13" y="17.5">sd</text></g></g><g transform="translate(2,10) scale(1,1)"><rect fill="#C0C0C0" height="39" opacity="0.2" stroke="none" width="136.76806640625" x="55" y="47"/></g><g transform="translate(2,10) scale(1,1)"><rect fill="#ffffff" height="39" stroke="none" width="136.76806640625" x="48" y="40"/></g><g transform="translate(2,10) scale(1,1)"><path d="M 48 40 L 184.76806640625 40 L 184.76806640625 79 L 48 79 L 48 40 Z Z" fill="none" stroke="#000000" stroke-miterlimit="10"/></g><g transform="translate(2,10) scale(1,1)"><g><path fill="none" stroke="none"/><text fill="#000000" font-family="Arial" font-size="13px" font-style="normal" font-weight="bold" stroke="none" text-decoration="none" x="63.990478515625" y="59.5">APK Olshop Anda</text></g></g><g transform="translate(2,10) scale(1,1)"><path d="M 117.5 80 L 117.5 744" fill="none" stroke="#000000" stroke-dasharray="3" stroke-miterlimit="10"/></g><g transform="translate(2,10) scale(1,1)"><rect fill="#C0C0C0" height="39" opacity="0.2" stroke="none" width="93.4326171875" x="303" y="47"/></g><g transform="translate(2,10) scale(1,1)"><rect fill="#ffffff" height="39" stroke="none" width="93.4326171875" x="296" y="40"/></g><g transform="translate(2,10) scale(1,1)"><path d="M 296 40 L 389.4326171875 40 L 389.4326171875 79 L 296 79 L 296 40 Z Z" fill="none" stroke="#000000" stroke-miterlimit="10"/></g><g transform="translate(2,10) scale(1,1)"><g><path fill="none" stroke="none"/><text fill="#000000" font-family="Arial" font-size="13px" font-style="normal" font-weight="bold" stroke="none" text-decoration="none" x="307.305908203125" y="59.5">Server anda</text></g></g><g transform="translate(2,10) scale(1,1)"><path d="M 343.5 80 L 343.5 752" fill="none" stroke="#000000" stroke-dasharray="3" stroke-miterlimit="10"/></g><g transform="translate(2,10) scale(1,1)"><rect fill="#C0C0C0" height="39" opacity="0.2" stroke="none" width="119.40087890625" x="527" y="47"/></g><g transform="translate(2,10) scale(1,1)"><rect fill="#ffffff" height="39" stroke="none" width="119.40087890625" x="520" y="40"/></g><g transform="translate(2,10) scale(1,1)"><path d="M 520 40 L 639.40087890625 40 L 639.40087890625 79 L 520 79 L 520 40 Z Z" fill="none" stroke="#000000" stroke-miterlimit="10"/></g><g transform="translate(2,10) scale(1,1)"><g><path fill="none" stroke="none"/><text fill="#000000" font-family="Arial" font-size="13px" font-style="normal" font-weight="bold" stroke="none" text-decoration="none" x="532.727783203125" y="59.5">API bukaOlshop</text></g></g><g transform="translate(2,10) scale(1,1)"><path d="M 580.5 80 L 580.5 752" fill="none" stroke="#000000" stroke-dasharray="3" stroke-miterlimit="10"/></g><g transform="translate(2,10) scale(1,1)"><rect fill="#C0C0C0" height="39" opacity="0.2" stroke="none" width="150.49169921875" x="751" y="47"/></g><g transform="translate(2,10) scale(1,1)"><rect fill="#ffffff" height="39" stroke="none" width="150.49169921875" x="744" y="40"/></g><g transform="translate(2,10) scale(1,1)"><path d="M 744 40 L 894.49169921875 40 L 894.49169921875 79 L 744 79 L 744 40 Z Z" fill="none" stroke="#000000" stroke-miterlimit="10"/></g><g transform="translate(2,10) scale(1,1)"><g><path fill="none" stroke="none"/><text fill="#000000" font-family="Arial" font-size="13px" font-style="normal" font-weight="bold" stroke="none" text-decoration="none" x="757.81005859375" y="59.5">Layanan pihak ketiga</text></g></g><g transform="translate(2,10) scale(1,1)"><path d="M 820.5 80 L 820.5 752" fill="none" stroke="#000000" stroke-dasharray="3" stroke-miterlimit="10"/></g><g transform="translate(2,10) scale(1,1)"><path d="M 117 112 L 147 112 L 147 132 L 123 132" fill="none" stroke="#000000" stroke-miterlimit="10"/></g><g transform="translate(2,10) scale(1,1)"><path d="M 133.16267485762415 127.79048224398402 L 123 132 L 133.16267485762415 136.209517756016" fill="#000000" stroke="none"/></g><g transform="translate(2,10) scale(1,1)"><path d="M 133.16267485762415 127.79048224398402 L 123 132 L 133.16267485762415 136.209517756016 L 133.16267485762415 127.79048224398402" fill="none" stroke="#000000" stroke-miterlimit="10"/></g><g transform="translate(2,10) scale(1,1)"><g><path fill="none" stroke="none"/><text fill="#000000" font-family="Arial" font-size="13px" font-style="normal" font-weight="normal" stroke="none" text-decoration="none" x="39.5" y="107.5">1 : Member membuat pesanan baru</text></g></g><g transform="translate(2,10) scale(1,1)"><rect fill="#ffffff" height="44" stroke="none" width="13" x="110" y="132"/></g><g transform="translate(2,10) scale(1,1)"><path d="M 110 132 L 123 132 L 123 176 L 110 176 L 110 132 Z Z" fill="none" stroke="#000000" stroke-miterlimit="10"/></g><g transform="translate(2,10) scale(1,1)"><path d="M 123 168 L 336 168" fill="none" stroke="#000000" stroke-miterlimit="10"/></g><g transform="translate(2,10) scale(1,1)"><path d="M 325.83732514237585 172.209517756016 L 336 168 L 325.83732514237585 163.790482243984" fill="#000000" stroke="none"/></g><g transform="translate(2,10) scale(1,1)"><path d="M 325.83732514237585 172.209517756016 L 336 168 L 325.83732514237585 163.790482243984 L 325.83732514237585 172.209517756016" fill="none" stroke="#000000" stroke-miterlimit="10"/></g><g transform="translate(2,10) scale(1,1)"><g><path fill="none" stroke="none"/><text fill="#000000" font-family="Arial" font-size="13px" font-style="normal" font-weight="normal" stroke="none" text-decoration="none" x="160.5" y="164.5">2 : Data callback dikirim</text></g></g><g transform="translate(2,10) scale(1,1)"><rect fill="#ffffff" height="40" stroke="none" width="13" x="336" y="168"/></g><g transform="translate(2,10) scale(1,1)"><path d="M 336 168 L 349 168 L 349 208 L 336 208 L 336 168 Z Z" fill="none" stroke="#000000" stroke-miterlimit="10"/></g><g transform="translate(2,10) scale(1,1)"><path d="M 349 200 L 379 200 L 379 220 L 349 220" fill="none" stroke="#000000" stroke-miterlimit="10"/></g><g transform="translate(2,10) scale(1,1)"><path d="M 359.16267485762415 215.790482243984 L 349 220 L 359.16267485762415 224.209517756016" fill="#000000" stroke="none"/></g><g transform="translate(2,10) scale(1,1)"><path d="M 359.16267485762415 215.790482243984 L 349 220 L 359.16267485762415 224.209517756016 L 359.16267485762415 215.790482243984" fill="none" stroke="#000000" stroke-miterlimit="10"/></g><g transform="translate(2,10) scale(1,1)"><g><path fill="none" stroke="none"/><text fill="#000000" font-family="Arial" font-size="13px" font-style="normal" font-weight="normal" stroke="none" text-decoration="none" x="349.5" y="244.5">3 : Cek secret key</text></g></g><g transform="translate(2,10) scale(1,1)"><rect fill="#ffffff" height="60" stroke="none" width="13" x="336" y="220"/></g><g transform="translate(2,10) scale(1,1)"><path d="M 336 220 L 349 220 L 349 280 L 336 280 L 336 220 Z Z" fill="none" stroke="#000000" stroke-miterlimit="10"/></g><g transform="translate(2,10) scale(1,1)"><path d="M 349 264 L 379 264 L 379 284 L 349 284" fill="none" stroke="#000000" stroke-miterlimit="10"/></g><g transform="translate(2,10) scale(1,1)"><path d="M 359.16267485762415 279.790482243984 L 349 284 L 359.16267485762415 288.209517756016" fill="#000000" stroke="none"/></g><g transform="translate(2,10) scale(1,1)"><path d="M 359.16267485762415 279.790482243984 L 349 284 L 359.16267485762415 288.209517756016 L 359.16267485762415 279.790482243984" fill="none" stroke="#000000" stroke-miterlimit="10"/></g><g transform="translate(2,10) scale(1,1)"><g><path fill="none" stroke="none"/><text fill="#000000" font-family="Arial" font-size="13px" font-style="normal" font-weight="normal" stroke="none" text-decoration="none" x="377.260498046875" y="300.5">4 : Secret key</text><text fill="#000000" font-family="Arial" font-size="13px" font-style="normal" font-weight="normal" stroke="none" text-decoration="none" x="381.23095703125" y="313.5">benar - valid</text></g></g><g transform="translate(2,10) scale(1,1)"><rect fill="#ffffff" height="92" stroke="none" width="13" x="336" y="284"/></g><g transform="translate(2,10) scale(1,1)"><path d="M 336 284 L 349 284 L 349 376 L 336 376 L 336 284 Z Z" fill="none" stroke="#000000" stroke-miterlimit="10"/></g><g transform="translate(2,10) scale(1,1)"><path d="M 349 352 L 573 352" fill="none" stroke="#000000" stroke-miterlimit="10"/></g><g transform="translate(2,10) scale(1,1)"><path d="M 562.8373251423759 356.209517756016 L 573 352 L 562.8373251423758 347.790482243984" fill="#000000" stroke="none"/></g><g transform="translate(2,10) scale(1,1)"><path d="M 562.8373251423759 356.209517756016 L 573 352 L 562.8373251423758 347.790482243984 L 562.8373251423759 356.209517756016" fill="none" stroke="#000000" stroke-miterlimit="10"/></g><g transform="translate(2,10) scale(1,1)"><g><path fill="none" stroke="none"/><text fill="#000000" font-family="Arial" font-size="13px" font-style="normal" font-weight="normal" stroke="none" text-decoration="none" x="391.5" y="348.5">5 : GET detail_transaksi</text></g></g><g transform="translate(2,10) scale(1,1)"><rect fill="#ffffff" height="64" stroke="none" width="13" x="573" y="352"/></g><g transform="translate(2,10) scale(1,1)"><path d="M 573 352 L 586 352 L 586 416 L 573 416 L 573 352 Z Z" fill="none" stroke="#000000" stroke-miterlimit="10"/></g><g transform="translate(2,10) scale(1,1)"><path d="M 573 408 L 343 408" fill="none" stroke="#000000" stroke-dasharray="3" stroke-miterlimit="10"/></g><g transform="translate(2,10) scale(1,1)"><path d="M 353.16267485762415 403.790482243984 L 343 408 L 353.16267485762415 412.209517756016" fill="none" stroke="#000000" stroke-miterlimit="10"/></g><g transform="translate(2,10) scale(1,1)"><g><path fill="none" stroke="none"/><text fill="#000000" font-family="Arial" font-size="13px" font-style="normal" font-weight="normal" stroke="none" text-decoration="none" x="406.5" y="424.5">6 : Data transaksi</text></g></g><g transform="translate(2,10) scale(1,1)"><path d="M 343 432 L 373 432 L 373 452 L 349 452" fill="none" stroke="#000000" stroke-miterlimit="10"/></g><g transform="translate(2,10) scale(1,1)"><path d="M 359.16267485762415 447.790482243984 L 349 452 L 359.16267485762415 456.209517756016" fill="#000000" stroke="none"/></g><g transform="translate(2,10) scale(1,1)"><path d="M 359.16267485762415 447.790482243984 L 349 452 L 359.16267485762415 456.209517756016 L 359.16267485762415 447.790482243984" fill="none" stroke="#000000" stroke-miterlimit="10"/></g><g transform="translate(2,10) scale(1,1)"><g><path fill="none" stroke="none"/><text fill="#000000" font-family="Arial" font-size="13px" font-style="normal" font-weight="normal" stroke="none" text-decoration="none" x="366.011474609375" y="467.5">7 : Gunakan layanan</text><text fill="#000000" font-family="Arial" font-size="13px" font-style="normal" font-weight="normal" stroke="none" text-decoration="none" x="387.695068359375" y="480.5">pihak ketiga?</text></g></g><g transform="translate(2,10) scale(1,1)"><rect fill="#ffffff" height="68" stroke="none" width="13" x="336" y="452"/></g><g transform="translate(2,10) scale(1,1)"><path d="M 336 452 L 349 452 L 349 520 L 336 520 L 336 452 Z Z" fill="none" stroke="#000000" stroke-miterlimit="10"/></g><g transform="translate(2,10) scale(1,1)"><path d="M 349 512 L 813 512" fill="none" stroke="#000000" stroke-miterlimit="10"/></g><g transform="translate(2,10) scale(1,1)"><path d="M 802.8373251423759 516.209517756016 L 813 512 L 802.8373251423758 507.790482243984" fill="#000000" stroke="none"/></g><g transform="translate(2,10) scale(1,1)"><path d="M 802.8373251423759 516.209517756016 L 813 512 L 802.8373251423758 507.790482243984 L 802.8373251423759 516.209517756016" fill="none" stroke="#000000" stroke-miterlimit="10"/></g><g transform="translate(2,10) scale(1,1)"><g><path fill="none" stroke="none"/><text fill="#000000" font-family="Arial" font-size="13px" font-style="normal" font-weight="normal" stroke="none" text-decoration="none" x="470.5" y="508.5">8 : POST data ke layanan pihak ketiga</text></g></g><g transform="translate(2,10) scale(1,1)"><rect fill="#ffffff" height="48" stroke="none" width="13" x="813" y="512"/></g><g transform="translate(2,10) scale(1,1)"><path d="M 813 512 L 826 512 L 826 560 L 813 560 L 813 512 Z Z" fill="none" stroke="#000000" stroke-miterlimit="10"/></g><g transform="translate(2,10) scale(1,1)"><path d="M 813 550 L 343 550" fill="none" stroke="#000000" stroke-dasharray="3" stroke-miterlimit="10"/></g><g transform="translate(2,10) scale(1,1)"><path d="M 353.16267485762415 545.790482243984 L 343 550 L 353.16267485762415 554.209517756016" fill="none" stroke="#000000" stroke-miterlimit="10"/></g><g transform="translate(2,10) scale(1,1)"><g><path fill="none" stroke="none"/><text fill="#000000" font-family="Arial" font-size="13px" font-style="normal" font-weight="normal" stroke="none" text-decoration="none" x="524.75" y="566.5">9 : status sukses?</text></g></g><g transform="translate(2,10) scale(1,1)"><path d="M 343 552 L 373 552 L 373 572 L 349 572" fill="none" stroke="#000000" stroke-miterlimit="10"/></g><g transform="translate(2,10) scale(1,1)"><path d="M 359.16267485762415 567.790482243984 L 349 572 L 359.16267485762415 576.209517756016" fill="#000000" stroke="none"/></g><g transform="translate(2,10) scale(1,1)"><path d="M 359.16267485762415 567.790482243984 L 349 572 L 359.16267485762415 576.209517756016 L 359.16267485762415 567.790482243984" fill="none" stroke="#000000" stroke-miterlimit="10"/></g><g transform="translate(2,10) scale(1,1)"><g><path fill="none" stroke="none"/><text fill="#000000" font-family="Arial" font-size="13px" font-style="normal" font-weight="normal" stroke="none" text-decoration="none" x="352.935546875" y="587.5">10 : status layanan</text><text fill="#000000" font-family="Arial" font-size="13px" font-style="normal" font-weight="normal" stroke="none" text-decoration="none" x="350.774169921875" y="600.5">pihak ketiga sukses</text></g></g><g transform="translate(2,10) scale(1,1)"><rect fill="#ffffff" height="92" stroke="none" width="13" x="336" y="572"/></g><g transform="translate(2,10) scale(1,1)"><path d="M 336 572 L 349 572 L 349 664 L 336 664 L 336 572 Z Z" fill="none" stroke="#000000" stroke-miterlimit="10"/></g><g transform="translate(2,10) scale(1,1)"><path d="M 349 648 L 573 648" fill="none" stroke="#000000" stroke-miterlimit="10"/></g><g transform="translate(2,10) scale(1,1)"><path d="M 562.8373251423759 652.209517756016 L 573 648 L 562.8373251423758 643.790482243984" fill="#000000" stroke="none"/></g><g transform="translate(2,10) scale(1,1)"><path d="M 562.8373251423759 652.209517756016 L 573 648 L 562.8373251423758 643.790482243984 L 562.8373251423759 652.209517756016" fill="none" stroke="#000000" stroke-miterlimit="10"/></g><g transform="translate(2,10) scale(1,1)"><g><path fill="none" stroke="none"/><text fill="#000000" font-family="Arial" font-size="13px" font-style="normal" font-weight="normal" stroke="none" text-decoration="none" x="362.5" y="644.5">11 : PATCH  ubah status transaksi</text></g></g><g transform="translate(2,10) scale(1,1)"><rect fill="#ffffff" height="48" stroke="none" width="13" x="573" y="648"/></g><g transform="translate(2,10) scale(1,1)"><path d="M 573 648 L 586 648 L 586 696 L 573 696 L 573 648 Z Z" fill="none" stroke="#000000" stroke-miterlimit="10"/></g><g transform="translate(2,10) scale(1,1)"><path d="M 573 688 L 343 688" fill="none" stroke="#000000" stroke-dasharray="3" stroke-miterlimit="10"/></g><g transform="translate(2,10) scale(1,1)"><path d="M 353.16267485762415 683.790482243984 L 343 688 L 353.16267485762415 692.209517756016" fill="none" stroke="#000000" stroke-miterlimit="10"/></g><g transform="translate(2,10) scale(1,1)"><g><path fill="none" stroke="none"/><text fill="#000000" font-family="Arial" font-size="13px" font-style="normal" font-weight="normal" stroke="none" text-decoration="none" x="397.609619140625" y="707.5">12 : Status transaksi</text><text fill="#000000" font-family="Arial" font-size="13px" font-style="normal" font-weight="normal" stroke="none" text-decoration="none" x="412.412353515625" y="720.5">berhasil diubah</text></g></g></g></svg>